<svg xmlns="http://www.w3.org/2000/svg" viewBox="0 0 512 512" width="512" height="512">
  <defs>
    <linearGradient id="bgGrad" x1="0%" y1="0%" x2="100%" y2="100%">
      <stop offset="0%" stop-color="#0f172a" />
      <stop offset="100%" stop-color="#1e1b4b" />
    </linearGradient>
    <linearGradient id="accentGrad" x1="0%" y1="0%" x2="100%" y2="0%">
      <stop offset="0%" stop-color="#6366f1" />
      <stop offset="50%" stop-color="#3b82f6" />
      <stop offset="100%" stop-color="#06b6d4" />
    </linearGradient>
    <filter id="glow" x="-20%" y="-20%" width="140%" height="140%">
      <feGaussianBlur stdDeviation="8" result="blur" />
      <feComposite in="SourceGraphic" in2="blur" operator="over" />
    </filter>
  </defs>
  <!-- Background -->
  <rect width="512" height="512" rx="128" fill="url(#bgGrad)"/>
  <!-- Decorative Ring -->
  <circle cx="256" cy="256" r="210" fill="none" stroke="url(#accentGrad)" stroke-width="4" opacity="0.3"/>
  <!-- Link Icon with Lightning Bolt -->
  <g transform="translate(116, 116)" filter="url(#glow)">
    <!-- Left Loop -->
    <path d="M70 140 C70 90, 110 50, 160 50 L180 50 A15 15 0 0 1 180 80 L160 80 C130 80, 100 105, 100 140 C100 175, 130 200, 160 200 L180 200 A15 15 0 0 1 180 230 L160 230 C110 230, 70 190, 70 140 Z" fill="url(#accentGrad)"/>
    <!-- Right Loop -->
    <path d="M210 50 A15 15 0 0 1 210 80 L230 80 C260 80, 290 105, 290 140 C290 175, 260 200, 230 200 L210 200 A15 15 0 0 1 210 230 L230 230 C280 230, 320 190, 320 140 C320 90, 280 50, 230 50 Z" fill="url(#accentGrad)"/>
    <!-- Fast Lightning bolt through the middle -->
    <polygon points="175,70 235,70 190,145 240,145 150,230 185,150 145,150" fill="#ffffff" filter="drop-shadow(0px 0px 8px rgba(255,255,255,0.8))"/>
  </g>
</svg>